<?xml version="1.0" encoding="UTF-8"?>
<svg id="Layer_2" data-name="Layer 2" xmlns="http://www.w3.org/2000/svg" viewBox="0 0 1471.45 340">
  <defs>
    <style>
      .cls-1 {
        fill: #1d1d1f;
      }

      .cls-2 {
        fill: #cfd1d2;
      }

      .cls-3 {
        fill: #221f1f;
      }
    </style>
  </defs>
  <g id="Live_Logos" data-name="Live Logos">
    <g>
      <g>
        <path class="cls-1" d="M170,9.63c88.58,0,159.86,72.38,159.86,160.66s-71.57,159.86-159.86,159.86c-88.29,0-159.86-71.57-159.86-159.86,0-88.29,71.27-160.66,159.86-160.66m0-9.63c-22.93,0-45.2,4.5-66.18,13.38-20.25,8.56-38.42,20.82-54.02,36.42-15.6,15.6-27.85,33.78-36.42,54.02C4.5,124.8,0,147.07,0,170c0,22.93,4.5,45.2,13.38,66.18,8.56,20.25,20.82,38.42,36.42,54.02,15.6,15.6,33.78,27.85,54.02,36.42,20.98,8.88,43.25,13.38,66.18,13.38,22.93,0,45.2-4.5,66.18-13.38,20.25-8.56,38.42-20.82,54.02-36.42,15.6-15.6,27.85-33.78,36.42-54.02,8.88-20.98,13.38-43.25,13.38-66.18,0-22.93-4.5-45.2-13.38-66.18-8.56-20.25-20.82-38.42-36.42-54.02-15.6-15.6-33.78-27.85-54.02-36.42C215.2,4.5,192.93,0,170,0h0Z"/>
        <g>
          <g>
            <polygon class="cls-1" points="112.55 94.28 102.68 89.68 94.75 96.42 96.39 86.67 86.65 81.86 97.53 80.43 99.44 70.73 104.52 79.59 115.45 78.4 107.71 85.31 112.55 94.28"/>
            <polygon class="cls-1" points="220.13 247.71 226.93 238.99 227.45 249.62 238.82 252.72 227.69 256.44 227.91 267.08 220.51 258.75 209.27 262.23 215.84 253.36 208.67 244.87 220.13 247.71"/>
            <polygon class="cls-1" points="183.4 45.6 179.66 50.3 179.37 44.4 173.1 42.48 179.23 40.62 179.1 34.72 183.18 39.47 189.37 37.76 185.76 42.55 189.71 47.39 183.4 45.6"/>
            <polygon class="cls-1" points="164.08 113.11 158.59 109.68 153.42 113.08 155.1 107.45 149.7 103.91 156.23 103.85 158.08 98.26 160.43 103.86 166.96 103.95 161.88 107.47 164.08 113.11"/>
            <polygon class="cls-1" points="311.09 179.83 315.94 183.79 321.73 181 319.02 186.36 323.77 190.42 317.24 189.78 314.39 195.07 313.06 189.32 306.56 188.53 312.26 185.62 311.09 179.83"/>
            <polygon class="cls-1" points="134.91 293.75 138.73 288.97 138.94 294.84 145.2 296.61 139.02 298.61 139.08 304.49 135.05 299.84 128.82 301.7 132.5 296.84 128.6 292.11 134.91 293.75"/>
          </g>
          <path class="cls-3" d="M294,72.29s-.01-.02-.02-.03c0,0,.01,.02,.02,.03Z"/>
          <g>
            <path class="cls-1" d="M69.5,270.79c-.85,3.17-2.07,5.7-2.1,5.74-.11,.23-.04,.5,.16,.65l11.75,8.56c.14,.1,.32,.13,.48,.07,.16-.06,.29-.19,.33-.36,.02-.07,1.07-4.13,1.74-9.16l-12.36-5.5Z"/>
            <path class="cls-1" d="M110.12,286.03c-1.61,4.89,1.61,6.91,4.17,8,1.79,.76,3.61,1.4,5.92,2.21,1.16,.41,2.43,.85,3.88,1.38,.06,.02,.12,.03,.18,.03,.12,0,.25-.04,.34-.13,.14-.12,.21-.32,.17-.5-.57-2.66-.62-5.17-.66-7.59l-13.99-3.4Z"/>
            <path class="cls-1" d="M243.05,200.35l-7.18,.5c-.27,.02-.48,.24-.48,.52v13.97c0,.17,.08,.33,.22,.42,.14,.1,.31,.12,.47,.07,.29-.1,4.19-1.44,8-2.82l-1.03-12.65Z"/>
            <g>
              <path class="cls-1" d="M276.28,205.2c-2.03,1.82-3.93,3.05-3.97,3.08-.2,.12-.28,.37-.22,.59l.61,1.98,4.76,12.64c.06,.17,.21,.29,.39,.33,.17,.04,.36-.02,.48-.16,.76-.84,1.45-1.55,2.07-2.2,1.21-1.26,2.18-2.26,2.96-3.41l-7.08-12.85Z"/>
              <g>
                <path class="cls-1" d="M275.44,205.92c-.09,.08-.18,.15-.27,.22-.17,.14-.34,.28-.5,.41-.1,.08-.19,.15-.28,.22-.15,.11-.28,.22-.42,.32-.09,.07-.17,.13-.26,.19-.13,.1-.25,.18-.36,.27-.07,.05-.14,.1-.2,.15-.11,.08-.21,.15-.31,.22-.05,.03-.09,.07-.13,.09-.1,.07-.18,.12-.24,.17-.01,0-.03,.02-.04,.03-.07,.05-.11,.07-.12,.08-.2,.12-.28,.37-.22,.59l.61,1.98,4.76,12.64c.06,.17,.21,.29,.39,.33,.07,.01,.14,0,.21-.01,.02,0,.05,0,.07-.02,.08-.03,.15-.07,.2-.13,.75-.82,1.42-1.52,2.03-2.15,.01-.01,.03-.03,.04-.04s.02-.03,.04-.04c.57-.59,1.08-1.12,1.54-1.64,.51-.57,.97-1.13,1.38-1.73l-7.08-12.85s-.02,.01-.02,.02c-.05,.04-.1,.08-.15,.13-.22,.2-.44,.39-.66,.57Z"/>
                <path class="cls-1" d="M235.6,215.75c.08,.06,.18,.08,.27,.08,.07,0,.13,0,.2-.02,.2-.07,2.06-.71,4.42-1.54,0,0,0,0,.01,0,.36-.13,.74-.26,1.13-.4,.05-.02,.1-.04,.15-.05,.39-.14,.78-.28,1.17-.42,.02,0,.05-.02,.07-.03,.35-.13,.7-.25,1.05-.38l-1.03-12.65-7.18,.5c-.27,.02-.48,.24-.48,.52v13.97c0,.09,.03,.17,.07,.25,.04,.07,.09,.13,.15,.17,0,0,0,0,0,0Z"/>
                <path class="cls-1" d="M69.07,272.25c-.07,.22-.14,.44-.21,.65-.05,.13-.09,.26-.13,.39-.07,.19-.13,.38-.2,.55-.05,.13-.09,.24-.14,.36-.06,.17-.12,.32-.18,.47-.04,.11-.08,.21-.12,.31-.06,.14-.11,.27-.16,.39-.04,.09-.07,.17-.11,.25-.05,.11-.09,.21-.13,.3-.03,.06-.06,.13-.08,.18-.04,.1-.07,.16-.1,.23-.01,.03-.03,.06-.04,.08-.03,.07-.05,.11-.06,.12-.07,.14-.05,.29,.01,.43,.04,.08,.07,.17,.15,.22l11.75,8.56c.08,.06,.18,.08,.28,.09,.07,0,.14,0,.2-.02h0c.16-.06,.29-.19,.33-.36,0,0,0-.02,0-.03,0-.01,.01-.04,.02-.07,0-.02,.01-.04,.02-.06,.02-.08,.05-.19,.08-.33,0-.02,.01-.05,.02-.07,.04-.15,.08-.33,.13-.55,0,0,0,0,0-.01,.05-.2,.1-.44,.16-.69,.01-.06,.02-.11,.04-.17,.06-.26,.12-.53,.18-.83,.01-.05,.02-.11,.03-.16,.06-.29,.12-.59,.19-.91,0-.05,.02-.09,.03-.14,.07-.34,.13-.7,.2-1.07,.02-.09,.03-.18,.05-.27,.07-.38,.14-.77,.21-1.18,.01-.07,.02-.14,.03-.21,.06-.38,.13-.78,.19-1.18,.01-.07,.02-.13,.03-.2,.05-.34,.1-.68,.14-1.03l-12.36-5.5c-.02,.09-.05,.17-.08,.26-.08,.28-.16,.55-.24,.82-.04,.13-.08,.25-.12,.38Z"/>
                <path class="cls-1" d="M114.29,294.02c-2.24-.95-4.98-2.61-4.55-6.29-.43,3.68,2.32,5.34,4.55,6.29,.9,.38,1.8,.73,2.77,1.09-.97-.36-1.87-.71-2.77-1.09Z"/>
              </g>
            </g>
            <path class="cls-3" d="M293.66,122.49s1.28,1.02,1,2.32c-.28,1.31-1,1.78-1,1.78,0,0-1.16-.19-1.02-1.2,.15-1.02,1.16-.58,1.02-2.9Z"/>
          </g>
          <g>
            <path class="cls-2" d="M295.36,129.51s.72-.43,1.42-1.27c-.41,.43-.87,.85-1.42,1.27Z"/>
            <path class="cls-2" d="M198.55,80.91s-.05,.01-.08,.02c0,0-.01,0-.02,.01,0,0,.04-.01,.1-.03Z"/>
            <path class="cls-2" d="M253.63,93.64s-4.89,9.95,3.82,15.13c0,0-4.23-4.35-3.82-15.13Z"/>
            <path class="cls-2" d="M221.39,64.02c-.12,.02-.2,.03-.2,.03,.07-.01,.13-.02,.2-.03Z"/>
            <path class="cls-2" d="M186.27,113.55c-3.58,2.36-6.35,4.03-6.35,4.03,1.93-.99,4.13-2.43,6.35-4.03Z"/>
            <g>
              <path class="cls-1" d="M297.89,126.83c.13-.21,.25-.43,.36-.64-.11,.22-.23,.43-.36,.64Z"/>
              <path class="cls-1" d="M261.71,65.3l6.65,3.41c.58,.27,1.15,.6,1.64,1.09,0,0,5.1,2.43,8.64,9.31,2.47,4.36,5.97,11.94,9.37,19.32,1.94,4.21,3.81,8.28,5.43,11.6-1.61-3.32-3.49-7.39-5.43-11.6-3.4-7.38-6.9-14.96-9.37-19.32,1.31-.58,2.9-.97,4.76-.94,2.6,.31,10.58,4.28,10.81,4.45,0,0-1.86-4.51-4.57-8.11-1.03-1.53-2.23-2.97-3.53-3.99,2.77,.38,8.33,2.35,8.33,2.35l-1.02-1.32s-6.89-8.29-18.33-8.61c1.57-3.68,1.57-7.25,1.57-7.25-2.79,.56-5.42,2.19-7.57,3.92-.02-3.49-.54-7.41-1.19-7.77,0,0-4.67,2.36-6.18,13.44Zm28.62,5.03c-9.97-5.87-19.89-4.73-19.89-4.73,11.36,2.29,20.72,13.98,20.72,13.98-11.03-11.42-22.06-13.98-22.06-13.98,12.42-3.39,21.24,4.73,21.24,4.73Z"/>
              <path class="cls-1" d="M298.51,120.67c-.06-.19-.12-.39-.18-.59,.07,.2,.13,.4,.18,.59Z"/>
              <path class="cls-1" d="M298.73,121.57c-.04-.21-.09-.42-.15-.63,.06,.21,.11,.42,.15,.63Z"/>
              <path class="cls-1" d="M293.43,110.04c.64,1.33,1.25,2.53,1.8,3.58-.55-1.05-1.15-2.26-1.8-3.58Z"/>
              <path class="cls-1" d="M298.21,119.73c-.07-.19-.14-.38-.21-.57,.07,.19,.14,.38,.21,.57Z"/>
              <path class="cls-1" d="M267.32,51.91c-.16,.12-.3,.25-.46,.38,.33-.15,.67-.3,1.03-.42-.18-.1-.41-.08-.57,.04Z"/>
              <path class="cls-1" d="M297.39,127.54c.17-.21,.32-.42,.45-.63-.14,.21-.29,.42-.45,.63Z"/>
              <path class="cls-1" d="M297.83,118.75c-.07-.18-.15-.36-.23-.54,.08,.18,.16,.36,.23,.54Z"/>
              <path class="cls-1" d="M297.37,117.71c-.08-.17-.16-.33-.24-.5,.08,.17,.16,.34,.24,.5Z"/>
              <path class="cls-1" d="M298.76,121.73c.29,1.59,.17,3.04-.49,4.4,.66-1.37,.78-2.81,.49-4.4Z"/>
              <path class="cls-1" d="M296.82,116.58c-.07-.14-.14-.28-.21-.42,.07,.14,.14,.28,.21,.42Z"/>
              <path class="cls-1" d="M298.25,126.19s.02-.04,.03-.06c0,.02-.02,.04-.03,.06Z"/>
              <path class="cls-1" d="M266.86,52.28c-4.23,1.9-6.12,6.39-6.94,9.62,.01,0,.03,.01,.04,.02,.97-3.59,3.2-6.68,6.9-9.64Z"/>
              <path class="cls-1" d="M298.76,121.73c0-.05-.02-.11-.03-.16,.01,.05,.02,.11,.03,.16Z"/>
              <path class="cls-1" d="M298.33,120.08c-.04-.11-.08-.23-.12-.35,.04,.12,.08,.23,.12,.35Z"/>
              <path class="cls-1" d="M296.6,116.17c-.19-.36-.39-.72-.59-1.09,.21,.37,.4,.73,.59,1.09Z"/>
              <path class="cls-1" d="M298,119.16c-.05-.14-.11-.28-.17-.41,.06,.14,.11,.28,.17,.41Z"/>
              <path class="cls-1" d="M298.58,120.94c-.02-.09-.05-.18-.07-.27,.03,.09,.05,.18,.07,.27Z"/>
              <path class="cls-1" d="M297.35,127.59s.03-.04,.04-.05c-.01,.02-.03,.04-.04,.05Z"/>
              <path class="cls-1" d="M297.84,126.9s.03-.05,.04-.07c-.01,.02-.03,.05-.04,.07Z"/>
              <path class="cls-1" d="M297.13,117.21c-.1-.21-.21-.42-.32-.63,.11,.21,.22,.42,.32,.63Z"/>
              <path class="cls-1" d="M297.6,118.21c-.07-.16-.15-.33-.23-.5,.08,.17,.16,.33,.23,.5Z"/>
            </g>
          </g>
          <g>
            <path class="cls-1" d="M296.78,128.24c.21-.21,.39-.43,.57-.65-.13,.16-.28,.31-.43,.47-.05,.06-.09,.12-.14,.18Z"/>
            <path class="cls-1" d="M296.94,120.85c-3.36-5.72-12.36-22.21-14.33-28.95-1.97-6.74-4.57-9.69-8.96-15.29-4.39-5.6-14.36-11.12-14.36-11.12,0,0,.1-1.53,.62-3.59-3.56-1.85-21.41-9.96-42.87,.08-.19,.09-1.73,1.1-1.54,1.18,.02,0,8.46,3.24,11.72,7.2-4.98,.26-29.47,2.02-36.59,11.57-.12,.16-1.54,2.32-1.46,2.49,.09,.18,11.53-.11,15.69,2.8-5.39,1.21-26.21,6.59-32.9,18.37-.1,.18-1.32,2.91-1.19,3.07,.12,.17,11.22-2.7,15.69-.13-2.55,3.32-11.25,13.56-22.96,15.55-.26,.04-.44,.27-.43,.53,.01,.26,.22,.48,.48,.5,.15,.01,1.11,.08,2.58,.1-.04,0-.07,.02-.11,.03,0,0,.33,0,.89-.02,5.34,0,15.93-.68,23.83-5.59,.84-.44,1.67-.91,2.46-1.43,10.74-7.05,24.16-25.84,30.2-31.88,4.59-4.59,9-7.44,14.24-9.72-4.99,4.22-12.77,11.13-15.52,15.35-4.03,6.2-25.35,33.12-38.04,39.55-8.66,4.39-20.2,3.34-31.36,2.31-5.06-.46-9.83-.9-14.28-.83-14.94,.22-31.36,1.86-39.78,12.32-5.69,7.06-7.77,11.22-8.54,13.24-1.23-2.43-4.77-7.25-13.94-8.99-11.51-2.2-18.33,9.34-24.36,19.52-.48,.81-.96,1.62-1.43,2.4-6.22,10.36-19.5,15.42-29.31,15.14-.25,0-.43,.13-.5,.34-.08,.21-.01,.45,.16,.59,.3,.24,6.85,5.43,13.78,6.5-3.39,1.61-11.84,4.98-20.03,3.08-.22-.05-.45,.05-.56,.24-.12,.19-.09,.44,.06,.61,.19,.22,4.46,5.02,10.45,7.26-3.03,.96-9.15,3.64-11.32,9.98-.07,.2-.01,.42,.15,.56,.16,.14,.39,.17,.57,.08,2.23-1.08,8.36-3.52,11.29-2.53-1.06,2.38-5.09,12.5,.47,18.24,.17,.17,.42,.21,.63,.09,.21-.12,.31-.36,.25-.58-.01-.05-1.35-5.53,4.25-11.36,2.34-2.44,6.16-4.2,10.2-6.06,5.94-2.74,12.67-5.84,16.37-11.91,4.15-6.8,8.46-17.02,11.91-25.24,1.67-3.96,3.24-7.69,4.53-10.42,2.72-5.74,7.11-3.91,11.35-2.14,1.24,.52,2.42,1.01,3.51,1.28l-.63,.95s-.05,.09-.07,.14c-2.49,8.57-1.01,16.8,4.65,25.9,3.64,5.85,3.31,11.86-.92,16.92-1.3,1.56-2.59,3.4-3.96,5.35-2.27,3.24-4.61,6.58-7.14,8.76-.08,.07-.14,.16-.16,.26-.02,.06-1.62,6.07-3.11,13.72-.59,2.99-2.06,6.76-3.48,10.4-2.25,5.75-4.58,11.7-3.73,15.32,.39,1.65,.3,3.54-.01,5.38l.46,.21,11.66,5.19c.25-2.54,.36-5.17,.16-7.58-.65-7.96,7.16-29.8,8.99-32.91,1.17-1.99,10.06-7.5,14.92-10.36-.11,.22-.22,.44-.33,.65-.74,1.48-1.39,2.77-2.36,3.68-8.52,8.04-9.53,16.96-3.18,28.06,2.07,3.61,2.97,7.8,3.85,11.84,1.11,5.12,2.26,10.41,5.72,14.86,.28,.36,.42,.95,.47,1.6l.3,.07,13.33,3.24c-.15-3.2-.62-6.3-2.69-9.45-4.42-6.72-7.74-13.82-9.62-20.52-2.31-8.26,.12-15.39,7.43-21.79l2.1-1.83c11.55-10.06,23.5-20.46,22.88-38.41,.05-.06,.15-.14,.22-.2,.06-.05,.12-.11,.18-.17,3.81,.91,44.16,9.9,70.98-8.62,.47-.22,3.81-.05,7.03,.11,8.2,.4,20.59,1,27.07-1.49,1.5-.58,4.62-1.24,7.37-1.83,1.74-.37,3.41-.73,4.61-1.04-5.1,14.58-13.21,18.11-13.98,18.42l-2.11,.15,.97,11.94c2.15-.8,3.98-1.53,4.71-1.93,.55-.3,1.53-.58,2.65-.91,3.11-.9,7.81-2.25,10.06-5.95,2.56-4.2,10.84-19.34,12.93-23.19,.38,.94,.61,1.95,.84,3.01,.17,.78,.35,1.59,.6,2.37,1.11,3.42,1.9,6.93,2.75,11.16,.45,2.25-1.06,4.67-2.94,6.73l.34,.61,6.47,11.74c1.76-2.65,3.35-5.19,4.71-7.9l.24-.49c1.36-2.71,2.9-5.77,2.7-8.63-.35-5-1.24-10.03-2.1-14.9-.35-1.98-.7-3.96-1.02-5.95-1.36-8.52-3.03-10.06-11.98-11.01l-.79-.08c-7.72-.82-23.77-2.54-29.81-1.79-.24,.03-.41,0-.46-.07-.46-.66,1.15-3.91,2.12-5.86,.76-1.52,1.47-2.96,1.79-4.02,2.38-7.75,.53-16.8-1.11-24.78-.54-2.62-1.04-5.08-1.4-7.45-.83-5.48,2.7-10.14,6.1-14.65,.53-.7,1.05-1.39,1.55-2.07,3.59,4.76,5.24,7.83,15.08,13.18,3.11,1.69,6.16,3.53,8.75,6.33,.97,1.05,1.98,2.14,3.01,3.09,3.34,3.07,7.24,5.29,13.06,.78,.62-.48,1.11-.96,1.56-1.45,1.08-1.4,2.02-3.81,.02-7.21Zm-128.35,3.43c12.84-1.26,31.12-17.7,31.12-17.7-18.12,18.71-31.12,17.7-31.12,17.7Zm17.68-10.72c6.38-4.58,12.84-10.42,12.84-10.42-11.26-1.68-25.99,4.18-25.99,4.18,9.48-6.13,27.6-5.36,27.6-5.36-2.66,3.45-9.37,8.23-14.45,11.59Zm17.64-16.2c-15.52-2.01-30.79,8.39-30.79,8.39,12.42-11.16,32.55-9.2,32.55-9.2l-1.76,.81Zm5.79-5.87c-23.24-1.93-36.58,13.52-36.58,13.52,13.59-17.79,38.59-14.31,38.59-14.31l-2.01,.79Zm-11.15-10.57c1.13-.34,13.03-3.81,21.08-1.33-9.62-.83-16.64,.21-21.08,1.33Zm-.08,.02c-3.7,.94-5.58,1.94-5.58,1.94,13.89-8.71,31.09-6.26,31.09-6.26,0,0-16.44-.75-25.51,4.32Zm-3.58,.01c14.21-8.92,31.09-6.26,31.09-6.26,0,0-19.63-.84-31.09,6.26ZM65.21,170.13c-1.39,2.78-2.8,6.58-4.42,10.68-3.95,9.99-9.19,21.8-18.59,25.17-13.27,4.77-17.2,18.24-17.2,18.24,2.55-10.28,7.54-14.63,10.2-16.31,4.28-2.68,6.71-2.68,9.14-4.19,2.43-1.51,3.69-2.01,5.87-4.87,2.18-2.85,5.87-6.29,11.91-23.07,6.04-16.78,12.75-16.61,12.75-16.61,2.64-.25,6.04-.62,6.04-.62-5.23-1-9.9,.32-12.83,4.42-2.94,4.1,1.57-4.53,7.3-5.43,4.82-.76,6.6,.47,7.05,.88-.61-.59-3.56-3-9.69-1.39-6.95,1.82-10.82,11.2-13.46,15.72-2.64,4.52-4.91,12.59-10.65,17.75-8.42,7.56-18.45,0-18.45,0,0,0,5.9,2.53,12.02,1.73,6.12-.81,12.42-12.17,14.31-16.32,1.89-4.15,6.54-11.95,8.93-14.72,2.39-2.77,4.24-5.61,9.31-5.54,5.08,.07,9.69,3.52,9.69,3.52,0,0-8.31-8.05-15.73-3.02-7.42,5.03-13.46,18.62-15.98,22.52-2.52,3.9-3.78,5.91-11.16,9.56-7.38,3.65-16.02,.62-16.02,.62,0,0,18.73,3.91,27.43-12.95,8.71-16.86,13.97-20.76,18.85-22.16,6.1-1.74,14.89,6.3,14.89,6.3-13.3-1.66-16.75,.54-21.52,10.07Zm45.81,48.71c14.92-7.67,35.24-36.69,35.24-36.69-11.61,26.53-35.24,36.69-35.24,36.69Zm98.66-35.86c-2.49-.92-2.07-6.84,.63-11.81,0,0-3.12,10.89,4.56,12.85,0,0-2.7-.12-5.19-1.04Zm66.75-5.39s.83-9.12-6.84-9.12c0,0,12.02-1.24,6.84,9.12Zm-33.84-109.94c-10.22-4.88-19.78-3.83-21.19-3.64,12.17-2.08,23.04,3.64,23.04,3.64h-1.85Zm8.28-4.68c-16.67-4.22-32.53,0-32.53,0,19.76-6.29,35.17,0,35.17,0h-2.64Zm25.85,30.71c-1.76,.05-3.61-1.14-3.61-1.14,1.59-4.03,4.19-3.19,4.19-3.19,1.17,2.77-.59,4.33-.59,4.33Z"/>
          </g>
          <path class="cls-1" d="M276.43,90.69s-1.06-.34-1.76,1.33l.88,.62s-.32-1.68,.88-1.94Z"/>
        </g>
      </g>
      <g>
        <g>
          <path class="cls-1" d="M401.37,293.01v-7.21l8.57-1.41v-62.28l-8.46-1.62v-7h57.52l1.2,18.13h-8.93l-3.81-10.14-20.79-1.04v28.32l13.58-.21,1.57-8.78h9.04v25.65h-9.04l-1.57-8.78-13.58-.26v28.58l25.03-1.2,6.43-13.79,8.93,2.04-3.03,21h-62.64Z"/>
          <path class="cls-1" d="M471.96,293.01v-7l7.58-1.04v-69.75l-7.78-1.31v-6.11l20.43-2.56h.16l3.29,2.46v77.27l7.89,1.04v7h-31.56Z"/>
          <path class="cls-1" d="M537.68,294.22c-4.91,0-9.13-.77-12.67-2.3-3.54-1.53-6.44-3.67-8.73-6.4s-3.96-6-5.04-9.8c-1.08-3.8-1.62-7.94-1.62-12.43,0-4.88,.69-9.24,2.06-13.09s3.32-7.12,5.83-9.82,5.52-4.76,9.04-6.19c3.52-1.43,7.42-2.14,11.7-2.14,14.45,0,22,7.05,22.62,21.16,.07,2.4,.06,4.57-.03,6.5-.09,1.93-.27,3.56-.55,4.88h-34.12c.17,3.45,.68,6.39,1.52,8.83,.84,2.44,1.93,4.42,3.29,5.96,1.36,1.53,2.97,2.65,4.83,3.34,1.86,.7,3.91,1.04,6.14,1.04,1.78,0,3.43-.14,4.96-.42,1.53-.28,2.95-.63,4.26-1.04,1.31-.42,2.49-.89,3.55-1.41s1.98-1.03,2.74-1.52l2.72,6.32c-.87,.91-2.08,1.85-3.63,2.85-1.55,.99-3.33,1.91-5.33,2.74-2,.84-4.16,1.53-6.48,2.09-2.32,.56-4.68,.84-7.08,.84Zm-1.41-55.17c-1.36,0-2.62,.24-3.79,.73-1.17,.49-2.19,1.41-3.08,2.77-.89,1.36-1.62,3.25-2.19,5.67-.58,2.42-.93,5.55-1.07,9.38h18.76c0-.17,0-.42,.03-.73s.03-.64,.05-.99c.02-.35,.03-.68,.03-.99v-.68c0-1.78-.12-3.58-.37-5.41-.24-1.83-.69-3.46-1.33-4.88-.65-1.43-1.53-2.59-2.67-3.5-1.13-.91-2.59-1.36-4.36-1.36Z"/>
          <path class="cls-1" d="M569.97,293.01v-6.79l6.53-1.2v-40.23l-7.11-2.19v-7.89l18.5-2.56h.26l2.77,2.25v6.22c1.15-1.08,2.57-2.12,4.26-3.13,1.69-1.01,3.5-1.9,5.43-2.66,1.93-.77,3.91-1.38,5.93-1.83,2.02-.45,3.94-.68,5.75-.68,4,0,7.19,.65,9.56,1.93,2.37,1.29,4.16,3.34,5.38,6.17,.98-.87,2.25-1.78,3.84-2.74,1.58-.96,3.33-1.83,5.25-2.61,1.92-.78,3.93-1.44,6.03-1.96,2.11-.52,4.15-.78,6.14-.78,3.27,0,6.01,.42,8.2,1.25,2.2,.84,3.95,2.19,5.28,4.08,1.32,1.88,2.26,4.33,2.82,7.34,.56,3.01,.84,6.68,.84,11v29.05l7.37,1.2v6.79h-28.94v-6.79l5.49-1.2v-28.58c0-2.68-.15-4.95-.44-6.82-.3-1.86-.79-3.37-1.49-4.52-.7-1.15-1.64-1.99-2.82-2.51-1.18-.52-2.66-.78-4.44-.78-.87,0-1.83,.12-2.87,.37-1.04,.24-2.09,.55-3.13,.91-1.04,.37-2.05,.78-3.03,1.23-.98,.45-1.83,.91-2.56,1.36,.28,1.46,.47,3.06,.57,4.78,.11,1.72,.16,3.6,.16,5.62v29l6.95,1.15v6.79h-29.26v-6.79l6.27-1.15v-29.21c0-2.4-.14-4.48-.42-6.24-.28-1.76-.76-3.19-1.44-4.31-.68-1.11-1.6-1.94-2.77-2.48-1.17-.54-2.64-.81-4.42-.81-1.04,0-2.13,.12-3.27,.37-1.13,.24-2.24,.55-3.32,.91-1.08,.37-2.07,.78-2.98,1.25-.91,.47-1.67,.95-2.3,1.44v39.03l7.05,1.2v6.79h-29.62Z"/>
          <path class="cls-1" d="M706.59,294.22c-4.91,0-9.13-.77-12.67-2.3-3.54-1.53-6.44-3.67-8.73-6.4s-3.96-6-5.04-9.8c-1.08-3.8-1.62-7.94-1.62-12.43,0-4.88,.69-9.24,2.06-13.09s3.32-7.12,5.83-9.82,5.52-4.76,9.04-6.19c3.52-1.43,7.42-2.14,11.7-2.14,14.45,0,22,7.05,22.62,21.16,.07,2.4,.06,4.57-.03,6.5-.09,1.93-.27,3.56-.55,4.88h-34.12c.17,3.45,.68,6.39,1.52,8.83,.84,2.44,1.93,4.42,3.29,5.96,1.36,1.53,2.97,2.65,4.83,3.34,1.86,.7,3.91,1.04,6.14,1.04,1.78,0,3.43-.14,4.96-.42,1.53-.28,2.95-.63,4.26-1.04,1.31-.42,2.49-.89,3.55-1.41s1.98-1.03,2.74-1.52l2.72,6.32c-.87,.91-2.08,1.85-3.63,2.85-1.55,.99-3.33,1.91-5.33,2.74-2,.84-4.16,1.53-6.48,2.09-2.32,.56-4.68,.84-7.08,.84Zm-1.41-55.17c-1.36,0-2.62,.24-3.79,.73-1.17,.49-2.19,1.41-3.08,2.77-.89,1.36-1.62,3.25-2.19,5.67-.58,2.42-.93,5.55-1.07,9.38h18.76c0-.17,0-.42,.03-.73s.03-.64,.05-.99c.02-.35,.03-.68,.03-.99v-.68c0-1.78-.12-3.58-.37-5.41-.24-1.83-.69-3.46-1.33-4.88-.65-1.43-1.53-2.59-2.67-3.5-1.13-.91-2.59-1.36-4.36-1.36Z"/>
          <path class="cls-1" d="M738.67,293.01v-7l6.74-1.04v-40.18l-7.11-2.19v-7.89l18.7-2.56h.26l2.77,2.25v6.22c1.15-1.04,2.51-2.07,4.08-3.08,1.57-1.01,3.27-1.9,5.09-2.66,1.83-.77,3.75-1.38,5.77-1.85,2.02-.47,4.06-.71,6.11-.71,3.34,0,6.14,.44,8.39,1.31,2.25,.87,4.03,2.26,5.36,4.18,1.32,1.92,2.26,4.38,2.82,7.39,.56,3.01,.84,6.64,.84,10.89v28.94l7.42,.99v7h-29.42v-7l5.7-.99v-29.15c0-2.4-.12-4.48-.37-6.24-.24-1.76-.69-3.19-1.33-4.31-.64-1.11-1.53-1.94-2.66-2.48-1.13-.54-2.59-.81-4.36-.81-1.18,0-2.35,.13-3.5,.39-1.15,.26-2.24,.6-3.27,1.02s-1.97,.88-2.82,1.38c-.85,.51-1.59,1-2.22,1.49v38.66l7,1.04v7h-29.99Z"/>
          <path class="cls-1" d="M818.03,280.48v-38.45h-7.37v-5.96c.28-.07,.72-.22,1.33-.44,.61-.23,1.24-.46,1.88-.71,.64-.24,1.23-.48,1.75-.71,.52-.23,.85-.39,.99-.5,1.18-.94,2.42-2.61,3.71-5.02,.35-.7,.73-1.51,1.15-2.43s.83-1.89,1.23-2.9c.4-1.01,.77-2.01,1.12-3,.35-.99,.64-1.89,.89-2.69h9.3l.16,15.46h15.36v8.88h-15.36v28.94c0,2.79,.04,5,.13,6.64,.09,1.64,.29,2.87,.63,3.71,.33,.84,.84,1.38,1.54,1.62,.7,.24,1.65,.37,2.87,.37h.05c.84,0,1.71-.07,2.64-.21,.92-.14,1.83-.3,2.72-.5,.89-.19,1.71-.4,2.46-.63s1.37-.43,1.85-.6h.05l2.46,6.11c-1.04,.8-2.32,1.6-3.84,2.4-1.51,.8-3.19,1.52-5.02,2.17-1.83,.65-3.76,1.17-5.8,1.57-2.04,.4-4.08,.6-6.14,.6h-.11c-2.3,0-4.26-.3-5.88-.89-1.62-.59-2.93-1.47-3.92-2.64-.99-1.17-1.72-2.6-2.17-4.31-.45-1.71-.68-3.67-.68-5.9Z"/>
          <path class="cls-1" d="M855.44,277.13c0-2.58,.46-4.86,1.38-6.84,.92-1.99,2.19-3.73,3.81-5.22,1.62-1.5,3.53-2.77,5.72-3.81,2.2-1.04,4.56-1.91,7.11-2.59,2.54-.68,5.19-1.18,7.94-1.49,2.75-.31,5.5-.5,8.26-.57v-2.51c0-3.97-.81-6.8-2.43-8.49-1.62-1.69-4.28-2.53-7.97-2.53-1.88,0-3.77,.15-5.67,.44s-3.72,.66-5.46,1.1c-1.74,.44-3.35,.92-4.83,1.46-1.48,.54-2.74,1.05-3.79,1.54h-.05l-3.08-7c.73-.59,1.97-1.37,3.71-2.32,1.74-.96,3.83-1.89,6.27-2.8,2.44-.91,5.14-1.69,8.1-2.35,2.96-.66,6.01-.99,9.14-.99,3.87,0,7.15,.42,9.85,1.25s4.89,2.12,6.58,3.87c1.69,1.74,2.93,3.94,3.71,6.61,.78,2.67,1.18,5.81,1.18,9.43v32.6h6.48v6.43c-.66,.14-1.48,.32-2.46,.55-.98,.23-2.06,.44-3.24,.63-1.18,.19-2.46,.36-3.81,.5-1.36,.14-2.75,.21-4.18,.21-1.25,0-2.32-.05-3.21-.16-.89-.1-1.6-.35-2.14-.73-.54-.38-.93-.93-1.18-1.65-.24-.71-.37-1.68-.37-2.9v-3.03c-.59,.8-1.41,1.69-2.46,2.66-1.04,.98-2.31,1.9-3.79,2.77-1.48,.87-3.16,1.59-5.04,2.17-1.88,.57-3.95,.86-6.22,.86-2.47,0-4.79-.33-6.95-.99-2.16-.66-4.05-1.69-5.67-3.08-1.62-1.39-2.9-3.17-3.84-5.33-.94-2.16-1.41-4.72-1.41-7.68Zm24.82,7c.63,0,1.34-.09,2.14-.26,.8-.17,1.64-.42,2.51-.73,.87-.31,1.72-.69,2.56-1.12,.84-.44,1.57-.93,2.2-1.49v-17.29c-3.38,0-6.21,.31-8.49,.94-2.28,.63-4.1,1.46-5.46,2.51s-2.33,2.25-2.9,3.6c-.58,1.36-.86,2.8-.86,4.34,0,3.1,.71,5.46,2.12,7.08,1.41,1.62,3.47,2.43,6.19,2.43Z"/>
          <path class="cls-1" d="M917.77,293.01v-7l7.52-.99v-40.23l-7.11-2.19v-7.89l17.87-2.56h.31l2.77,2.25v4.34l-.05,8.15h.21c.42-1.11,1.18-2.52,2.27-4.21,1.1-1.69,2.46-3.33,4.08-4.91,1.62-1.58,3.48-2.94,5.59-4.08,2.11-1.13,4.4-1.7,6.87-1.7,1.08,0,1.91,.04,2.48,.13,.58,.09,1.05,.2,1.44,.34v18.08c-.38-.28-1.38-.58-3-.91-1.62-.33-3.54-.5-5.77-.5-1.22,0-2.44,.07-3.66,.21-1.22,.14-2.36,.32-3.42,.55s-2.01,.5-2.85,.81-1.48,.63-1.93,.94v33.33l13.01,1.25v6.79h-36.62Z"/>
          <path class="cls-1" d="M983.98,319.66c-.7,0-1.46-.02-2.3-.05-.84-.04-1.66-.09-2.46-.16-.8-.07-1.52-.15-2.17-.24-.65-.09-1.11-.18-1.38-.29v-12.8c.52,.24,1.56,.53,3.11,.86s3.37,.5,5.46,.5c1.04,0,2.19-.12,3.42-.37,1.24-.24,2.52-.85,3.84-1.83,1.32-.98,2.66-2.43,4.02-4.36,1.36-1.93,2.68-4.57,3.97-7.92h-9.4l-18.81-51.72-4.75-1.46v-6.69h30.25v6.64l-7.89,1.52,9.98,30.98,4.08,14.21,3.55-14.21,7.94-30.98-6.79-1.52v-6.64h23.09v6.69l-4.81,1.46c-1.01,3.17-2.08,6.59-3.21,10.27-1.13,3.67-2.27,7.38-3.42,11.13-1.15,3.74-2.28,7.39-3.4,10.95-1.12,3.55-2.12,6.79-3.03,9.72-.91,2.93-1.7,5.42-2.38,7.47-.68,2.06-1.18,3.45-1.49,4.18-2.96,8.05-6.44,14.17-10.45,18.36-4.01,4.2-8.86,6.3-14.58,6.3Z"/>
          <path class="cls-1" d="M1096.46,294.22c-3.24,0-6.23-.23-8.96-.71-2.73-.47-5.2-.99-7.39-1.57-2.19-.57-4.08-1.11-5.64-1.62s-2.79-.79-3.66-.86l.89-19.8h9.4l2.3,12.96c.91,1.01,2.42,1.95,4.54,2.82,2.12,.87,4.72,1.31,7.79,1.31,2.44,0,4.51-.29,6.22-.86,1.71-.57,3.09-1.38,4.15-2.4,1.06-1.03,1.83-2.23,2.3-3.6,.47-1.38,.71-2.86,.71-4.47,0-1.85-.4-3.51-1.2-4.99-.8-1.48-1.95-2.87-3.45-4.18-1.5-1.31-3.33-2.56-5.49-3.76-2.16-1.2-4.6-2.46-7.31-3.79-2.09-.97-4.31-2.16-6.66-3.55-2.35-1.39-4.52-3.1-6.5-5.12-1.98-2.02-3.64-4.39-4.96-7.11-1.32-2.72-1.99-5.87-1.99-9.46,0-2.86,.58-5.56,1.75-8.1,1.17-2.54,2.9-4.76,5.2-6.66,2.3-1.9,5.16-3.4,8.57-4.52,3.41-1.11,7.37-1.67,11.86-1.67,2.4,0,4.75,.17,7.05,.52,2.3,.35,4.44,.74,6.43,1.18,1.99,.44,3.74,.86,5.25,1.28,1.51,.42,2.67,.7,3.47,.84l-.68,18.02h-9.2l-2.14-11.86c-.28-.31-.74-.64-1.38-.97-.65-.33-1.39-.63-2.25-.91-.85-.28-1.79-.5-2.79-.68-1.01-.17-2.04-.26-3.08-.26-2.16,0-4,.24-5.54,.71-1.53,.47-2.78,1.14-3.74,2.01-.96,.87-1.66,1.9-2.12,3.08-.45,1.18-.68,2.49-.68,3.92,0,2.02,.45,3.81,1.36,5.36,.91,1.55,2.17,2.98,3.79,4.28,1.62,1.31,3.54,2.56,5.77,3.76,2.23,1.2,4.67,2.46,7.31,3.79,2.3,1.15,4.65,2.45,7.05,3.89,2.4,1.45,4.6,3.11,6.58,4.99s3.6,4.02,4.86,6.43,1.88,5.16,1.88,8.25c0,2.75-.54,5.56-1.62,8.41-1.08,2.86-2.8,5.45-5.17,7.78-2.37,2.33-5.43,4.23-9.2,5.69s-8.33,2.19-13.69,2.19Z"/>
          <path class="cls-1" d="M1133.19,263.81c0-4.7,.71-9,2.12-12.9,1.41-3.9,3.42-7.25,6.03-10.06,2.61-2.8,5.77-4.98,9.48-6.53,3.71-1.55,7.86-2.33,12.46-2.33,2.33,0,4.48,.13,6.43,.39,1.95,.26,3.69,.57,5.22,.91,1.53,.35,2.86,.71,3.97,1.07,1.12,.37,2.02,.65,2.72,.86l-.52,17.82h-9.2l-3.03-9.2c-.77-1.46-1.71-2.61-2.82-3.45-1.12-.84-2.47-1.25-4.08-1.25s-3.06,.39-4.47,1.18c-1.41,.78-2.66,2.02-3.76,3.71-1.1,1.69-1.98,3.88-2.64,6.56-.66,2.68-.99,5.92-.99,9.72,0,4.32,.34,7.98,1.02,10.97,.68,3,1.67,5.42,2.98,7.26,1.31,1.85,2.9,3.18,4.78,4,1.88,.82,3.99,1.23,6.32,1.23,3.24,0,6.03-.44,8.38-1.31,2.35-.87,4.33-1.81,5.93-2.82l2.77,6.32c-.73,.8-1.79,1.68-3.16,2.64-1.38,.96-2.98,1.85-4.81,2.69-1.83,.84-3.85,1.53-6.06,2.09s-4.52,.84-6.92,.84c-4.91,0-9.14-.77-12.7-2.3s-6.47-3.66-8.75-6.37c-2.28-2.72-3.97-5.93-5.07-9.64-1.1-3.71-1.65-7.74-1.65-12.1Z"/>
          <path class="cls-1" d="M1188.89,293.01v-7l6.43-1.04v-69.75l-7.84-1.31v-6.11l20.32-2.56h.26l3.19,2.46,.11,24.61-.84,8.31c.94-.87,2.12-1.79,3.53-2.77,1.41-.97,3-1.87,4.78-2.69s3.72-1.5,5.83-2.04c2.11-.54,4.33-.81,6.66-.81,3.41,0,6.24,.47,8.46,1.41,2.23,.94,4,2.39,5.3,4.34,1.31,1.95,2.23,4.42,2.77,7.39,.54,2.98,.81,6.5,.81,10.58v28.94l7.37,1.04v7h-29.26v-6.79l5.8-1.15v-29.21c0-2.4-.12-4.48-.37-6.24-.24-1.76-.71-3.19-1.38-4.31-.68-1.11-1.62-1.94-2.82-2.48-1.2-.54-2.74-.81-4.62-.81-1.08,0-2.19,.12-3.34,.37-1.15,.24-2.25,.55-3.32,.91-1.06,.37-2.06,.78-3,1.25-.94,.47-1.72,.95-2.35,1.44v38.98l7.16,1.04v7h-29.62Z"/>
          <path class="cls-1" d="M1261.3,263.44c0-5.29,.82-9.91,2.46-13.85,1.64-3.94,3.81-7.21,6.53-9.82s5.86-4.56,9.43-5.85c3.57-1.29,7.29-1.93,11.15-1.93,4.53,0,8.53,.71,12.02,2.12,3.48,1.41,6.41,3.44,8.78,6.09,2.37,2.65,4.16,5.87,5.38,9.67,1.22,3.8,1.83,8.1,1.83,12.9,0,5.43-.82,10.14-2.46,14.11-1.64,3.97-3.81,7.24-6.53,9.8-2.72,2.56-5.85,4.46-9.4,5.69-3.55,1.24-7.26,1.85-11.13,1.85-4.53,0-8.53-.71-12.02-2.12-3.48-1.41-6.42-3.44-8.8-6.09-2.39-2.65-4.19-5.87-5.41-9.67-1.22-3.8-1.83-8.1-1.83-12.9Zm28.94,23.56c1.92,0,3.57-.43,4.96-1.28,1.39-.85,2.55-2.19,3.47-4.02,.92-1.83,1.6-4.17,2.04-7.03,.44-2.86,.65-6.27,.65-10.24s-.2-7.69-.6-10.84c-.4-3.15-1.04-5.79-1.93-7.92-.89-2.12-2.06-3.74-3.5-4.83-1.45-1.1-3.21-1.65-5.3-1.65-1.92,0-3.58,.43-4.99,1.28-1.41,.85-2.59,2.19-3.53,4.02-.94,1.83-1.64,4.17-2.09,7.03-.45,2.86-.68,6.27-.68,10.24s.21,7.69,.63,10.84c.42,3.15,1.09,5.79,2.01,7.92,.92,2.12,2.11,3.74,3.55,4.83,1.45,1.1,3.21,1.65,5.3,1.65Z"/>
          <path class="cls-1" d="M1325.67,263.44c0-5.29,.82-9.91,2.46-13.85,1.64-3.94,3.81-7.21,6.53-9.82,2.72-2.61,5.86-4.56,9.43-5.85,3.57-1.29,7.29-1.93,11.15-1.93,4.53,0,8.53,.71,12.02,2.12,3.48,1.41,6.41,3.44,8.78,6.09,2.37,2.65,4.16,5.87,5.38,9.67,1.22,3.8,1.83,8.1,1.83,12.9,0,5.43-.82,10.14-2.46,14.11-1.64,3.97-3.81,7.24-6.53,9.8-2.72,2.56-5.85,4.46-9.4,5.69-3.55,1.24-7.26,1.85-11.13,1.85-4.53,0-8.53-.71-12.02-2.12-3.48-1.41-6.42-3.44-8.8-6.09-2.39-2.65-4.19-5.87-5.41-9.67-1.22-3.8-1.83-8.1-1.83-12.9Zm28.94,23.56c1.92,0,3.57-.43,4.96-1.28,1.39-.85,2.55-2.19,3.47-4.02,.92-1.83,1.6-4.17,2.04-7.03,.44-2.86,.65-6.27,.65-10.24s-.2-7.69-.6-10.84c-.4-3.15-1.04-5.79-1.93-7.92-.89-2.12-2.06-3.74-3.5-4.83-1.45-1.1-3.21-1.65-5.3-1.65-1.92,0-3.58,.43-4.99,1.28-1.41,.85-2.59,2.19-3.53,4.02-.94,1.83-1.64,4.17-2.09,7.03-.45,2.86-.68,6.27-.68,10.24s.21,7.69,.63,10.84c.42,3.15,1.09,5.79,2.01,7.92,.92,2.12,2.11,3.74,3.55,4.83,1.45,1.1,3.21,1.65,5.3,1.65Z"/>
          <path class="cls-1" d="M1389.62,293.01v-7l7.58-1.04v-69.75l-7.78-1.31v-6.11l20.43-2.56h.16l3.29,2.46v77.27l7.89,1.04v7h-31.56Z"/>
        </g>
        <g>
          <path class="cls-1" d="M458.26,161.05c-9.33,0-17.55-1.49-24.64-4.47-7.09-2.98-13.05-7.17-17.88-12.58-4.83-5.4-8.46-11.88-10.92-19.42-2.45-7.54-3.68-15.87-3.68-25s1.59-17.81,4.79-25.43c3.19-7.62,7.57-14.15,13.13-19.58,5.56-5.43,12.14-9.62,19.74-12.58,7.59-2.95,15.79-4.43,24.6-4.43,3.8,0,7.41,.23,10.84,.67,3.43,.45,6.63,.95,9.61,1.5s5.71,1.11,8.19,1.66c2.48,.55,4.61,.96,6.41,1.23l-1.82,31.48h-16.22l-4.75-20.8c-.53-.63-1.2-1.25-2.02-1.86-.82-.61-1.82-1.12-3.01-1.54-1.19-.42-2.62-.76-4.31-1.03-1.69-.26-3.69-.4-6.01-.4-4.54,0-8.7,.99-12.5,2.97s-7.05,4.96-9.77,8.94c-2.72,3.98-4.83,8.98-6.33,14.99s-2.25,13.05-2.25,21.12c0,6.96,.61,13.66,1.82,20.09,1.21,6.43,3.07,12.12,5.58,17.05,2.5,4.93,5.68,8.87,9.53,11.83,3.85,2.95,8.41,4.43,13.68,4.43,2.64,0,4.9-.14,6.8-.44,1.9-.29,3.53-.67,4.9-1.15,1.37-.47,2.5-1.04,3.4-1.7,.9-.66,1.66-1.33,2.29-2.02l7.2-17.48,13.92,.79-1.9,26.89c-2.27,.16-4.56,.57-6.88,1.23-2.32,.66-4.93,1.36-7.83,2.1-2.9,.74-6.26,1.41-10.08,2.02-3.82,.61-8.37,.91-13.65,.91Z"/>
          <path class="cls-1" d="M513.07,159.23v-10.6l9.73-1.58V41.45l-11.87-1.98v-9.25l30.77-3.88h.4l4.83,3.72,.16,37.26-1.27,12.58c1.42-1.32,3.2-2.72,5.34-4.19,2.14-1.48,4.55-2.83,7.24-4.07,2.69-1.24,5.63-2.27,8.82-3.08,3.19-.82,6.55-1.23,10.08-1.23,5.17,0,9.44,.71,12.81,2.14,3.37,1.42,6.05,3.61,8.03,6.57,1.98,2.95,3.38,6.68,4.19,11.19,.82,4.51,1.23,9.85,1.23,16.02v43.82l11.15,1.58v10.6h-44.3v-10.28l8.78-1.74v-44.22c0-3.64-.19-6.79-.55-9.45-.37-2.66-1.07-4.84-2.1-6.53-1.03-1.69-2.45-2.94-4.27-3.76-1.82-.82-4.15-1.23-7-1.23-1.63,0-3.32,.19-5.06,.55-1.74,.37-3.42,.83-5.02,1.38-1.61,.55-3.12,1.19-4.55,1.9s-2.61,1.44-3.56,2.18v59.01l10.84,1.58v10.6h-44.85Z"/>
          <path class="cls-1" d="M668.82,161.05c-7.44,0-13.83-1.16-19.18-3.48s-9.76-5.55-13.21-9.69c-3.46-4.14-6-9.08-7.63-14.83-1.63-5.75-2.45-12.02-2.45-18.83,0-7.38,1.04-13.99,3.12-19.81,2.08-5.83,5.02-10.78,8.82-14.87,3.8-4.09,8.36-7.21,13.68-9.37,5.33-2.16,11.23-3.24,17.72-3.24,21.88,0,33.3,10.68,34.25,32.04,.11,3.64,.09,6.92-.04,9.85s-.41,5.39-.83,7.4h-51.65c.26,5.22,1.03,9.68,2.29,13.37,1.27,3.69,2.93,6.7,4.98,9.02,2.06,2.32,4.5,4.01,7.32,5.06,2.82,1.06,5.92,1.58,9.29,1.58,2.69,0,5.19-.21,7.51-.63,2.32-.42,4.47-.95,6.45-1.58,1.98-.63,3.77-1.34,5.38-2.14,1.61-.79,2.99-1.55,4.15-2.29l4.11,9.57c-1.32,1.37-3.15,2.81-5.5,4.31s-5.04,2.89-8.07,4.15-6.3,2.32-9.81,3.16-7.08,1.27-10.72,1.27Zm-2.14-83.53c-2.06,0-3.97,.37-5.73,1.11-1.77,.74-3.32,2.14-4.67,4.19-1.34,2.06-2.45,4.92-3.32,8.58-.87,3.67-1.41,8.4-1.62,14.2h28.4c0-.26,.01-.63,.04-1.11,.03-.47,.05-.98,.08-1.5,.03-.53,.04-1.03,.04-1.5v-1.03c0-2.69-.19-5.42-.55-8.19-.37-2.77-1.04-5.23-2.02-7.4-.98-2.16-2.32-3.93-4.03-5.3-1.71-1.37-3.92-2.06-6.61-2.06Z"/>
          <path class="cls-1" d="M720.07,159.23v-10.6l11.39-1.5v-60.91l-10.76-3.32v-11.94l27.05-3.88h.47l4.19,3.4v6.57l-.08,12.34h.32c.63-1.69,1.78-3.81,3.44-6.37,1.66-2.56,3.72-5.04,6.17-7.44,2.45-2.4,5.27-4.46,8.46-6.17,3.19-1.71,6.66-2.57,10.4-2.57,1.63,0,2.89,.07,3.76,.2,.87,.13,1.59,.3,2.17,.51v27.37c-.58-.42-2.1-.88-4.55-1.38-2.45-.5-5.37-.75-8.74-.75-1.85,0-3.69,.11-5.54,.32-1.85,.21-3.57,.49-5.18,.83-1.61,.34-3.05,.75-4.31,1.23s-2.24,.95-2.93,1.42v50.47l19.7,1.9v10.28h-55.45Z"/>
          <path class="cls-1" d="M800.75,159.23v-10.6l11.39-1.5v-60.91l-10.76-3.32v-11.94l27.05-3.88h.47l4.19,3.4v6.57l-.08,12.34h.32c.63-1.69,1.78-3.81,3.44-6.37,1.66-2.56,3.72-5.04,6.17-7.44,2.45-2.4,5.27-4.46,8.46-6.17,3.19-1.71,6.66-2.57,10.4-2.57,1.63,0,2.89,.07,3.76,.2,.87,.13,1.59,.3,2.17,.51v27.37c-.58-.42-2.1-.88-4.55-1.38-2.45-.5-5.37-.75-8.74-.75-1.85,0-3.69,.11-5.54,.32-1.85,.21-3.57,.49-5.18,.83-1.61,.34-3.05,.75-4.31,1.23s-2.24,.95-2.93,1.42v50.47l19.7,1.9v10.28h-55.45Z"/>
          <path class="cls-1" d="M904.23,199.57c-1.06,0-2.21-.03-3.48-.08-1.27-.05-2.5-.13-3.72-.24-1.21-.11-2.31-.23-3.28-.36-.98-.13-1.67-.28-2.1-.44v-19.38c.79,.37,2.36,.8,4.71,1.31,2.35,.5,5.1,.75,8.27,.75,1.58,0,3.31-.19,5.18-.55,1.87-.37,3.81-1.29,5.81-2.77,2-1.48,4.03-3.68,6.09-6.6s4.06-6.92,6.01-11.98h-14.24l-28.48-78.31-7.2-2.21v-10.12h45.8v10.05l-11.94,2.29,15.11,46.91,6.17,21.52,5.38-21.52,12.02-46.91-10.28-2.29v-10.05h34.96v10.12l-7.28,2.21c-1.53,4.8-3.15,9.98-4.87,15.54-1.71,5.56-3.44,11.18-5.18,16.85-1.74,5.67-3.45,11.19-5.14,16.57-1.69,5.38-3.22,10.28-4.59,14.71-1.37,4.43-2.57,8.2-3.6,11.31-1.03,3.11-1.78,5.22-2.25,6.33-4.48,12.18-9.76,21.45-15.82,27.8-6.06,6.35-13.42,9.53-22.07,9.53Z"/>
          <path class="cls-1" d="M1094.62,161.05c-9.33,0-17.55-1.49-24.64-4.47-7.09-2.98-13.05-7.17-17.88-12.58-4.83-5.4-8.46-11.88-10.92-19.42-2.45-7.54-3.68-15.87-3.68-25s1.59-17.81,4.79-25.43c3.19-7.62,7.57-14.15,13.13-19.58,5.56-5.43,12.14-9.62,19.74-12.58,7.59-2.95,15.79-4.43,24.6-4.43,3.8,0,7.41,.23,10.84,.67,3.43,.45,6.63,.95,9.61,1.5s5.71,1.11,8.19,1.66c2.48,.55,4.61,.96,6.41,1.23l-1.82,31.48h-16.22l-4.75-20.8c-.53-.63-1.2-1.25-2.02-1.86-.82-.61-1.82-1.12-3.01-1.54-1.19-.42-2.62-.76-4.31-1.03-1.69-.26-3.69-.4-6.01-.4-4.54,0-8.7,.99-12.5,2.97s-7.05,4.96-9.77,8.94c-2.72,3.98-4.83,8.98-6.33,14.99-1.5,6.01-2.25,13.05-2.25,21.12,0,6.96,.61,13.66,1.82,20.09,1.21,6.43,3.07,12.12,5.58,17.05,2.5,4.93,5.68,8.87,9.53,11.83,3.85,2.95,8.41,4.43,13.68,4.43,2.64,0,4.9-.14,6.8-.44,1.9-.29,3.53-.67,4.9-1.15,1.37-.47,2.5-1.04,3.4-1.7,.9-.66,1.66-1.33,2.29-2.02l7.2-17.48,13.92,.79-1.9,26.89c-2.27,.16-4.56,.57-6.88,1.23-2.32,.66-4.93,1.36-7.83,2.1-2.9,.74-6.26,1.41-10.08,2.02-3.82,.61-8.37,.91-13.65,.91Z"/>
          <path class="cls-1" d="M1150.78,159.23v-10.6l11.39-1.5v-60.91l-10.76-3.32v-11.94l27.05-3.88h.47l4.19,3.4v6.57l-.08,12.34h.32c.63-1.69,1.78-3.81,3.44-6.37,1.66-2.56,3.72-5.04,6.17-7.44,2.45-2.4,5.27-4.46,8.46-6.17,3.19-1.71,6.66-2.57,10.4-2.57,1.63,0,2.89,.07,3.76,.2,.87,.13,1.59,.3,2.17,.51v27.37c-.58-.42-2.1-.88-4.55-1.38-2.45-.5-5.37-.75-8.74-.75-1.85,0-3.69,.11-5.54,.32-1.85,.21-3.57,.49-5.18,.83-1.61,.34-3.05,.75-4.31,1.23s-2.24,.95-2.93,1.42v50.47l19.7,1.9v10.28h-55.45Z"/>
          <path class="cls-1" d="M1272.51,161.05c-7.44,0-13.83-1.16-19.18-3.48s-9.76-5.55-13.21-9.69c-3.46-4.14-6-9.08-7.63-14.83-1.63-5.75-2.45-12.02-2.45-18.83,0-7.38,1.04-13.99,3.12-19.81,2.08-5.83,5.02-10.78,8.82-14.87,3.8-4.09,8.36-7.21,13.68-9.37,5.33-2.16,11.23-3.24,17.72-3.24,21.88,0,33.3,10.68,34.25,32.04,.11,3.64,.09,6.92-.04,9.85s-.41,5.39-.83,7.4h-51.65c.26,5.22,1.03,9.68,2.29,13.37,1.27,3.69,2.93,6.7,4.98,9.02,2.06,2.32,4.5,4.01,7.32,5.06,2.82,1.06,5.92,1.58,9.29,1.58,2.69,0,5.19-.21,7.51-.63,2.32-.42,4.47-.95,6.45-1.58,1.98-.63,3.77-1.34,5.38-2.14,1.61-.79,2.99-1.55,4.15-2.29l4.11,9.57c-1.32,1.37-3.15,2.81-5.5,4.31s-5.04,2.89-8.07,4.15-6.3,2.32-9.81,3.16-7.08,1.27-10.72,1.27Zm-2.14-83.53c-2.06,0-3.97,.37-5.73,1.11-1.77,.74-3.32,2.14-4.67,4.19-1.34,2.06-2.45,4.92-3.32,8.58-.87,3.67-1.41,8.4-1.62,14.2h28.4c0-.26,.01-.63,.04-1.11,.03-.47,.05-.98,.08-1.5,.03-.53,.04-1.03,.04-1.5v-1.03c0-2.69-.19-5.42-.55-8.19-.37-2.77-1.04-5.23-2.02-7.4-.98-2.16-2.32-3.93-4.03-5.3-1.71-1.37-3.92-2.06-6.61-2.06Z"/>
          <path class="cls-1" d="M1325.67,154.17v-22.23h14.55l4.11,12.34c.47,.69,1.2,1.37,2.18,2.06,.97,.69,2.13,1.29,3.48,1.82,1.34,.53,2.86,.96,4.55,1.31,1.69,.34,3.45,.51,5.3,.51,2.64,0,4.79-.32,6.45-.95,1.66-.63,2.99-1.44,3.99-2.41,1-.98,1.69-2.08,2.06-3.32,.37-1.24,.55-2.44,.55-3.6,0-2.21-.57-4.13-1.7-5.73-1.13-1.61-2.74-3.08-4.83-4.43s-4.6-2.65-7.55-3.92c-2.95-1.27-6.22-2.64-9.81-4.11-3.64-1.48-6.91-3.12-9.81-4.94-2.9-1.82-5.37-3.86-7.4-6.13-2.03-2.27-3.6-4.8-4.71-7.59-1.11-2.79-1.66-5.93-1.66-9.41,0-3.74,.78-7.21,2.33-10.4,1.56-3.19,3.86-5.96,6.92-8.31,3.06-2.35,6.85-4.19,11.39-5.54,4.54-1.34,9.78-2.02,15.74-2.02,3.48,0,6.58,.21,9.29,.63,2.72,.42,5.18,.91,7.4,1.46s4.24,1.13,6.09,1.74c1.85,.61,3.64,1.07,5.38,1.38v21.83l-13.76-.24-3.72-10.52c-.74-1.21-2.14-2.39-4.19-3.52-2.06-1.13-4.67-1.73-7.83-1.78-2.37,0-4.36,.26-5.97,.79-1.61,.53-2.9,1.24-3.88,2.14-.98,.9-1.67,1.89-2.1,2.97-.42,1.08-.63,2.18-.63,3.28,0,2.74,.71,5,2.14,6.76,1.42,1.77,3.22,3.26,5.38,4.47,2.16,1.21,4.54,2.28,7.12,3.2,2.58,.92,5.04,1.91,7.36,2.97,3.48,1.53,6.8,3.15,9.97,4.86,3.16,1.71,5.97,3.71,8.42,5.97,2.45,2.27,4.4,4.89,5.85,7.87,1.45,2.98,2.17,6.53,2.17,10.64,0,3.85-.75,7.41-2.25,10.68-1.5,3.27-3.77,6.12-6.8,8.54-3.03,2.43-6.83,4.32-11.39,5.7s-9.9,2.06-16.02,2.06c-4.17,0-7.98-.29-11.43-.87-3.46-.58-6.59-1.25-9.41-2.02-2.82-.76-5.34-1.53-7.55-2.29-2.21-.76-4.14-1.33-5.77-1.7Z"/>
          <path class="cls-1" d="M1420.67,140.25v-58.22h-11.15v-9.02c.42-.1,1.09-.33,2.02-.67,.92-.34,1.87-.7,2.85-1.07,.97-.37,1.86-.72,2.65-1.07,.79-.34,1.29-.59,1.5-.75,1.79-1.42,3.67-3.96,5.62-7.59,.53-1.05,1.11-2.28,1.74-3.68,.63-1.4,1.25-2.86,1.86-4.39,.61-1.53,1.17-3.05,1.7-4.55,.53-1.5,.98-2.86,1.34-4.07h14.08l.24,23.41h23.26v13.45h-23.26v43.82c0,4.22,.07,7.57,.2,10.05,.13,2.48,.45,4.35,.95,5.62s1.28,2.08,2.33,2.45c1.05,.37,2.5,.55,4.35,.55h.08c1.27,0,2.6-.1,3.99-.32,1.4-.21,2.77-.46,4.11-.75,1.35-.29,2.58-.61,3.72-.95,1.13-.34,2.07-.65,2.81-.91h.08l3.72,9.25c-1.58,1.21-3.52,2.43-5.81,3.64-2.29,1.21-4.83,2.31-7.59,3.28-2.77,.98-5.7,1.77-8.78,2.37-3.08,.61-6.18,.91-9.29,.91h-.16c-3.48,0-6.45-.45-8.9-1.34-2.45-.9-4.43-2.23-5.93-3.99-1.5-1.77-2.6-3.94-3.28-6.53-.69-2.58-1.03-5.56-1.03-8.94Z"/>
        </g>
      </g>
    </g>
  </g>
</svg>