<svg xmlns="http://www.w3.org/2000/svg" viewBox="0 0 200 80" fill="none">
  <!-- Gati pinwheel -->
  <g transform="translate(40,40)">
    <path d="M0-18C0-18 12-6 0 0Z" fill="#E31E24"/>
    <path d="M0-18C0-18-12-6 0 0Z" fill="#F7941D"/>
    <path d="M18 0C18 0 6 12 0 0Z" fill="#009B3A"/>
    <path d="M18 0C18 0 6-12 0 0Z" fill="#E31E24"/>
    <path d="M0 18C0 18-12 6 0 0Z" fill="#0072BC"/>
    <path d="M0 18C0 18 12 6 0 0Z" fill="#009B3A"/>
    <path d="M-18 0C-18 0-6-12 0 0Z" fill="#F7941D"/>
    <path d="M-18 0C-18 0-6 12 0 0Z" fill="#0072BC"/>
  </g>
  <!-- GATI text -->
  <text x="72" y="50" font-family="Arial, Helvetica, sans-serif" font-weight="800" font-size="36" fill="#0097A9" letter-spacing="2">GATI</text>
</svg>
