<svg xmlns="http://www.w3.org/2000/svg" viewBox="0 0 120 120" fill="none">
  <!-- HPCL circle -->
  <circle cx="60" cy="60" r="52" fill="#003876"/>
  <!-- HP letters -->
  <text x="60" y="55" font-family="Arial, Helvetica, sans-serif" font-weight="900" font-size="36" fill="#E31E24" text-anchor="middle" dominant-baseline="middle">HP</text>
  <!-- Swoosh wings -->
  <path d="M22 72c0 0 15 12 38 12s38-12 38-12" stroke="#003876" stroke-width="0" fill="none"/>
  <path d="M20 68q18 18 40 18t40-18" fill="#003876" opacity="0"/>
  <!-- Bottom swooshes -->
  <path d="M24 74c0 0 12 8 36 8s36-8 36-8l-4 6c0 0-10 6-32 6s-32-6-32-6z" fill="#003876"/>
  <path d="M30 70c8 8 18 12 30 12s22-4 30-12c-2 4-6 8-12 11-6 3-12 5-18 5s-12-2-18-5c-6-3-10-7-12-11z" fill="#E31E24" opacity="0.0"/>
  <!-- Petals / wings under HP -->
  <path d="M32 64c6 10 16 16 28 16s22-6 28-16" stroke="#fff" stroke-width="3" fill="none" stroke-linecap="round"/>
  <path d="M38 68c4 6 12 10 22 10s18-4 22-10" stroke="#fff" stroke-width="2.5" fill="none" stroke-linecap="round"/>
</svg>
