<svg xmlns="http://www.w3.org/2000/svg" viewBox="0 0 300 100" fill="none">
  <rect width="300" height="100" rx="0" fill="#fff"/>
  <!-- LTM Logo - coral/salmon with rounded L bottom, thick block letters -->
  <!-- L - with rounded bottom-left corner -->
  <path d="M10 8 h22 v52 c0 0 0 0 0 0 h38 v18 H10 c0 0 0 0 0 0 Z" fill="#E8685A" />
  <path d="M10 68 v-60 h22 v52 h38 v18 h-48 c-6.6 0-12-5.4-12-12z" fill="#E8685A"/>
  <!-- T - thick top bar with centered stem -->
  <path d="M82 8 h70 v18 h-24 v52 h-22 v-52 h-24 Z" fill="#E8685A"/>
  <!-- M - angular with V-notch, thick legs -->
  <path d="M164 8 h26 l22 44 22-44 h26 v70 h-22 V38 l-20 40 h-12 l-20-40 v40 h-22 Z" fill="#E8685A"/>
</svg>
