<svg xmlns="http://www.w3.org/2000/svg" viewBox="0 0 120 120" fill="none">
  <defs>
    <linearGradient id="mg1" x1="10%" y1="90%" x2="90%" y2="10%">
      <stop offset="0%" stop-color="#5B189E"/>
      <stop offset="30%" stop-color="#A8217E"/>
      <stop offset="60%" stop-color="#E03B6A"/>
      <stop offset="85%" stop-color="#EF7040"/>
      <stop offset="100%" stop-color="#F08838"/>
    </linearGradient>
    <clipPath id="mc"><circle cx="60" cy="60" r="46"/></clipPath>
  </defs>
  <rect width="120" height="120" fill="#fff" rx="24"/>
  <g clip-path="url(#mc)">
    <!-- Curved sweeping strokes with dash pattern creating broken-line globe effect -->
    <!-- Outer-left arcs (purple region) -->
    <path d="M14 88 C20 80 26 68 28 55 C30 42 27 30 22 18" stroke="#5B189E" stroke-width="4.2" stroke-linecap="round" stroke-dasharray="8 5 3 6 12 4" fill="none"/>
    <path d="M20 96 C28 86 36 72 38 58 C40 44 36 30 30 18" stroke="#6D22A0" stroke-width="4.2" stroke-linecap="round" stroke-dasharray="10 4 5 6 8 5" fill="none"/>
    <path d="M28 102 C38 90 46 76 48 60 C50 44 46 30 40 16" stroke="#8B2490" stroke-width="4.5" stroke-linecap="round" stroke-dasharray="12 5 4 7 6 4" fill="none"/>
    <!-- Mid arcs (magenta/pink region) -->
    <path d="M36 106 C48 92 56 78 58 62 C60 46 56 32 50 16" stroke="#B52880" stroke-width="4.5" stroke-linecap="round" stroke-dasharray="9 6 5 4 14 5" fill="none"/>
    <path d="M46 108 C56 94 64 80 66 64 C68 48 66 34 60 18" stroke="#D43068" stroke-width="4.3" stroke-linecap="round" stroke-dasharray="6 4 10 5 8 6" fill="none"/>
    <path d="M56 108 C64 96 72 82 74 66 C76 50 74 36 70 20" stroke="#E24558" stroke-width="4" stroke-linecap="round" stroke-dasharray="11 5 4 6 7 5" fill="none"/>
    <!-- Right arcs (pink-to-orange region) -->
    <path d="M66 106 C72 96 78 84 82 68 C84 54 82 40 78 26" stroke="#E85B48" stroke-width="3.8" stroke-linecap="round" stroke-dasharray="8 6 5 4 10 5" fill="none"/>
    <path d="M74 102 C80 92 86 80 88 66 C90 54 88 42 86 30" stroke="#ED6E3C" stroke-width="3.5" stroke-linecap="round" stroke-dasharray="6 5 9 4 5 6" fill="none"/>
    <path d="M82 96 C86 88 90 78 92 66 C94 56 92 46 90 36" stroke="#F08030" stroke-width="3" stroke-linecap="round" stroke-dasharray="5 5 8 4 4 6" fill="none"/>
    <!-- Extra scattered dots to fill the globe shape -->
    <circle cx="18" cy="68" r="2.2" fill="#5B189E"/>
    <circle cx="24" cy="48" r="2.5" fill="#6D22A0"/>
    <circle cx="16" cy="56" r="1.8" fill="#5B189E"/>
    <circle cx="32" cy="36" r="2" fill="#7C28A0"/>
    <circle cx="42" cy="24" r="2.2" fill="#9B2490"/>
    <circle cx="52" cy="18" r="2" fill="#B52880"/>
    <circle cx="64" cy="16" r="2.2" fill="#D43068"/>
    <circle cx="74" cy="20" r="1.8" fill="#E24558"/>
    <circle cx="82" cy="28" r="2" fill="#E85B48"/>
    <circle cx="90" cy="42" r="1.8" fill="#ED6E3C"/>
    <circle cx="92" cy="58" r="2" fill="#F08030"/>
    <circle cx="30" cy="90" r="2" fill="#6D22A0"/>
    <circle cx="48" cy="100" r="2.2" fill="#B52880"/>
    <circle cx="62" cy="102" r="1.8" fill="#D43068"/>
    <circle cx="76" cy="96" r="2" fill="#E85B48"/>
    <circle cx="86" cy="86" r="1.5" fill="#ED6E3C"/>
    <circle cx="38" cy="50" r="1.5" fill="#8B2490"/>
    <circle cx="68" cy="50" r="1.5" fill="#E24558"/>
    <circle cx="56" cy="90" r="1.8" fill="#D43068"/>
  </g>
</svg>