<svg xmlns="http://www.w3.org/2000/svg" viewBox="0 0 120 120" fill="none">
  <defs>
    <linearGradient id="mt-g1" x1="0%" y1="100%" x2="100%" y2="0%">
      <stop offset="0%" stop-color="#6B21A8"/>
      <stop offset="40%" stop-color="#DB2777"/>
      <stop offset="70%" stop-color="#F472B6"/>
      <stop offset="100%" stop-color="#F97316"/>
    </linearGradient>
    <linearGradient id="mt-g2" x1="0%" y1="100%" x2="100%" y2="0%">
      <stop offset="0%" stop-color="#7C3AED"/>
      <stop offset="50%" stop-color="#EC4899"/>
      <stop offset="100%" stop-color="#FB923C"/>
    </linearGradient>
    <clipPath id="mt-clip"><circle cx="60" cy="60" r="48"/></clipPath>
  </defs>
  <rect width="120" height="120" fill="#fff" rx="24"/>
  <g clip-path="url(#mt-clip)">
    <!-- Sweeping curved lines forming globe shape -->
    <path d="M18 95 Q30 85 38 70 Q46 55 42 38 Q38 22 28 14" stroke="url(#mt-g1)" stroke-width="4.5" stroke-linecap="round" fill="none"/>
    <path d="M24 100 Q38 88 48 72 Q56 56 52 38 Q48 22 38 12" stroke="url(#mt-g1)" stroke-width="4.5" stroke-linecap="round" fill="none"/>
    <path d="M32 105 Q48 90 58 74 Q66 58 62 40 Q58 24 50 12" stroke="url(#mt-g2)" stroke-width="4.5" stroke-linecap="round" fill="none"/>
    <path d="M40 108 Q56 92 66 76 Q74 60 72 42 Q70 26 62 14" stroke="url(#mt-g2)" stroke-width="4.5" stroke-linecap="round" fill="none"/>
    <path d="M50 108 Q64 94 74 78 Q82 62 80 44 Q78 28 72 16" stroke="url(#mt-g2)" stroke-width="4" stroke-linecap="round" fill="none"/>
    <path d="M60 106 Q72 94 80 80 Q88 64 88 48 Q86 32 82 20" stroke="url(#mt-g2)" stroke-width="3.5" stroke-linecap="round" fill="none"/>
    <path d="M70 102 Q78 92 86 78 Q92 64 92 50 Q92 36 88 24" stroke="url(#mt-g2)" stroke-width="3" stroke-linecap="round" fill="none"/>
    <!-- Accent dots scattered along curves -->
    <circle cx="35" cy="28" r="2.5" fill="#9333EA"/>
    <circle cx="45" cy="20" r="2" fill="#DB2777"/>
    <circle cx="58" cy="16" r="1.8" fill="#EC4899"/>
    <circle cx="70" cy="18" r="2" fill="#F97316"/>
    <circle cx="80" cy="24" r="1.5" fill="#FB923C"/>
    <circle cx="88" cy="36" r="2" fill="#F97316"/>
    <circle cx="28" cy="50" r="2" fill="#7C3AED"/>
    <circle cx="22" cy="70" r="2.5" fill="#6B21A8"/>
    <circle cx="30" cy="85" r="2" fill="#7C3AED"/>
    <circle cx="50" cy="98" r="2" fill="#DB2777"/>
    <circle cx="65" cy="100" r="1.8" fill="#EC4899"/>
    <circle cx="78" cy="94" r="1.5" fill="#F97316"/>
    <circle cx="85" cy="84" r="2" fill="#FB923C"/>
    <circle cx="90" cy="60" r="1.5" fill="#F97316"/>
  </g>
</svg>