<svg xmlns="http://www.w3.org/2000/svg" viewBox="0 0 200 200" fill="none">
  <defs>
    <linearGradient id="rg" x1="20" y1="20" x2="180" y2="180" gradientUnits="userSpaceOnUse">
      <stop offset="0%" stop-color="#C0C8D0"/>
      <stop offset="30%" stop-color="#E8ECF0"/>
      <stop offset="50%" stop-color="#F8FAFB"/>
      <stop offset="70%" stop-color="#D0D8E0"/>
      <stop offset="100%" stop-color="#A0AAB4"/>
    </linearGradient>
    <linearGradient id="ri" x1="30" y1="30" x2="170" y2="170" gradientUnits="userSpaceOnUse">
      <stop offset="0%" stop-color="#1A5276"/>
      <stop offset="100%" stop-color="#2980B9"/>
    </linearGradient>
    <linearGradient id="ag" x1="60" y1="120" x2="165" y2="55" gradientUnits="userSpaceOnUse">
      <stop offset="0%" stop-color="#C0C8D0"/>
      <stop offset="40%" stop-color="#E8ECF0"/>
      <stop offset="100%" stop-color="#F0F4F8"/>
    </linearGradient>
    <linearGradient id="sg" x1="40" y1="115" x2="140" y2="95" gradientUnits="userSpaceOnUse">
      <stop offset="0%" stop-color="#2196F3"/>
      <stop offset="100%" stop-color="#1565C0"/>
    </linearGradient>
  </defs>
  <circle cx="100" cy="100" r="88" fill="url(#rg)"/>
  <circle cx="100" cy="100" r="84" fill="none" stroke="url(#ri)" stroke-width="2.5"/>
  <circle cx="100" cy="100" r="78" fill="white"/>
  <path d="M60 68h14c4.4 0 7.6 1.2 9.6 3.2 1.6 1.6 2.4 3.8 2.4 6.2v.2c0 4.2-2.2 6.6-5.2 8 3.8 1.4 6.2 3.8 6.2 8.4v.2c0 6.2-5 9.8-13.2 9.8H60V68zm18.5 11c0-2.8-2.1-4.4-5.8-4.4H66v9h6.6c3.8 0 5.9-1.6 5.9-4.4v-.2zm-4.5 12H66v9.4h8.4c4 0 6.2-1.8 6.2-4.6v-.2c0-2.8-2.2-4.6-6.6-4.6z" fill="#0D3B66"/>
  <path d="M100 68h6.5v16l13.5-16h8l-13 15.2L129 104h-8l-10.5-16.4-4 4.4V104H100V68z" fill="#0D3B66"/>
  <path d="M48 108 C60 102, 80 97, 105 100 C120 102, 132 108, 148 104" stroke="url(#sg)" stroke-width="4" fill="none" stroke-linecap="round"/>
  <path d="M55 118 C70 115, 90 100, 110 88 C125 78, 140 68, 152 56" stroke="url(#ag)" stroke-width="5.5" fill="none" stroke-linecap="round"/>
  <polygon points="155,48 160,62 147,58" fill="#E0E4E8"/>
</svg>
