<svg xmlns="http://www.w3.org/2000/svg" viewBox="0 0 120 120" fill="none">
  <defs>
    <linearGradient id="bg" x1="0" y1="0" x2="120" y2="120" gradientUnits="userSpaceOnUse">
      <stop offset="0%" stop-color="#6366f1"/>
      <stop offset="100%" stop-color="#ec4899"/>
    </linearGradient>
  </defs>
  <circle cx="60" cy="60" r="56" fill="url(#bg)"/>
  <path d="M32 34h12c3.8 0 6.6 1 8.4 2.8 1.4 1.4 2.1 3.2 2.1 5.4v.1c0 3.6-1.9 5.7-4.5 6.9 3.3 1.2 5.4 3.3 5.4 7.3v.1c0 5.4-4.3 8.4-11.4 8.4H32V34zm16 9.6c0-2.4-1.8-3.8-5-3.8h-5.6v7.8h5.4c3.2 0 5.2-1.4 5.2-3.9v-.1zm-3.8 10.2H37.4v8.2h7.2c3.4 0 5.4-1.5 5.4-4v-.1c0-2.5-1.9-4-5.8-4.1z" fill="#fff"/>
  <path d="M66 34h5.6v13.8L83.3 34h6.9L79 48.2 91 66h-7L75.6 52l-4 4.4V66H66V34z" fill="#fff"/>
</svg>
